<svg xmlns="http://www.w3.org/2000/svg" viewBox="0 0 920 200" role="img" aria-label="Little Fight NYC">
  <title>Little Fight NYC</title>
  <svg x="8" y="34" width="192" height="128" viewBox="0 0 838.016418 562.406218" preserveAspectRatio="xMidYMid meet"><g transform="translate(-297.159815,611.589160) scale(0.100000,-0.100000)"
fill="#ffffff" stroke="none">
<path d="M6050 6114 c-317 -39 -527 -140 -620 -299 -42 -70 -38 -357 6 -506
17 -57 20 -58 111 -24 189 70 312 107 448 136 128 27 475 30 623 5 51 -8 99
-13 107 -9 18 6 20 85 5 195 -5 40 -14 105 -19 145 -30 230 -198 349 -506 358
-66 2 -136 1 -155 -1z"/>
<path d="M8860 5354 c-152 -16 -582 -54 -908 -79 -326 -25 -534 -168 -639
-439 -32 -82 -44 -234 -41 -541 4 -311 -2 -337 -84 -409 -50 -43 -86 -59 -165
-72 -39 -6 -43 -4 -61 26 -11 17 -22 48 -26 68 -20 126 -56 422 -61 507 -4 55
-13 143 -20 195 -7 52 -16 129 -20 170 -9 103 -32 235 -45 259 -42 80 -614
120 -811 57 -24 -8 -91 -29 -149 -47 -134 -41 -282 -112 -315 -150 -29 -35
-33 -95 -14 -208 5 -35 16 -132 24 -215 17 -180 51 -493 65 -591 16 -115 13
-189 -8 -208 -27 -24 -99 -35 -281 -42 -343 -12 -525 -91 -693 -297 -135 -166
-174 -337 -158 -685 9 -192 11 -198 52 -212 67 -24 1232 -9 1543 19 61 5 184
14 275 20 150 10 459 46 585 69 28 5 79 12 115 16 65 6 161 23 295 52 39 8 90
19 115 24 97 20 147 56 337 243 222 219 296 271 461 331 72 26 224 60 312 69
30 4 87 13 125 21 146 30 243 47 330 61 50 7 144 25 210 39 66 14 149 30 185
36 36 5 117 21 180 36 63 14 150 34 192 43 42 9 84 22 92 30 20 16 21 104 2
260 -8 63 -17 178 -21 255 -3 77 -10 176 -15 220 -5 44 -14 145 -20 225 -16
204 -41 324 -90 422 -97 193 -244 318 -461 394 -73 25 -281 40 -389 28z m420
-582 c59 -26 108 -75 136 -137 26 -58 59 -299 70 -510 10 -189 2 -200 -141
-215 -44 -4 -125 -13 -180 -19 -55 -6 -149 -15 -210 -21 -60 -5 -155 -15 -210
-21 -154 -16 -212 -3 -275 63 -41 45 -59 109 -71 267 -17 213 -9 347 23 396
83 127 183 168 478 195 69 6 152 15 185 20 80 11 140 6 195 -18z"/>
<path d="M10910 3414 c-30 -7 -118 -25 -195 -39 -77 -14 -174 -32 -215 -40
-173 -34 -250 -48 -340 -60 -52 -8 -149 -25 -215 -40 -66 -14 -149 -30 -185
-36 -36 -5 -94 -16 -130 -24 -177 -40 -249 -55 -290 -60 -25 -3 -74 -12 -110
-20 -116 -25 -223 -46 -310 -60 -47 -7 -107 -18 -135 -24 -105 -22 -213 -42
-300 -56 -219 -34 -315 -90 -490 -286 -107 -119 -155 -162 -249 -223 -74 -49
-231 -113 -316 -131 -206 -42 -369 -72 -450 -80 -30 -3 -100 -12 -155 -20
-153 -22 -452 -53 -625 -65 -85 -6 -202 -15 -259 -20 -506 -45 -1428 -36
-2266 22 -479 33 -451 32 -522 13 -190 -52 -231 -306 -122 -761 16 -66 36
-138 44 -160 9 -21 22 -52 28 -69 53 -134 166 -309 251 -389 158 -147 285
-213 506 -262 122 -27 888 -35 3235 -31 2488 3 2311 -1 2575 61 176 41 267 74
427 155 376 187 669 473 900 876 78 137 179 375 198 465 4 19 22 87 40 150
103 364 149 896 92 1058 -27 76 -65 126 -117 152 -47 24 -210 27 -300 4z
m-515 -678 c32 -14 72 -46 107 -85 51 -57 58 -69 69 -132 26 -144 -23 -264
-136 -333 -47 -29 -55 -31 -155 -31 -100 0 -108 2 -155 31 -209 128 -187 444
38 549 71 33 163 34 232 1z"/>
</g></svg>
  <g transform="translate(220 126) scale(.086 -.086)">
    <path fill="#ffffff" d="M60 0V810H239V121H425V0ZM516 0V810H695V0ZM901 0V677H779V810H1202V677H1081V0ZM1358 0V677H1236V810H1659V677H1538V0ZM1742 0V810H1921V121H2107V0ZM2197 0V810H2561V688H2376V487H2517V363H2376V121H2563V0ZM2924 0V810H3274V689H3103V485H3252V360H3103V0ZM3371 0V810H3550V0ZM3894 -12Q3810 -12 3761.5 23.0Q3713 58 3692.5 121.5Q3672 185 3672 268V540Q3672 626 3694.0 689.0Q3716 752 3769.5 786.5Q3823 821 3915 821Q4005 821 4056.5 791.0Q4108 761 4130.0 708.0Q4152 655 4152 584V532H3977V598Q3977 624 3973.5 646.0Q3970 668 3957.5 681.5Q3945 695 3917 695Q3888 695 3875.0 679.5Q3862 664 3858.5 641.0Q3855 618 3855 593V218Q3855 191 3860.5 167.5Q3866 144 3880.5 129.5Q3895 115 3922 115Q3950 115 3965.0 130.0Q3980 145 3986.0 169.0Q3992 193 3992 220V315H3919V420H4153V0H4035L4025 67Q4009 33 3978.0 10.5Q3947 -12 3894 -12ZM4280 0V810H4459V482H4585V810H4764V0H4585V354H4459V0ZM4972 0V677H4850V810H5273V677H5152V0Z"/>
    <path fill="#050507" d="M5624 0V810H5750L5916 420V810H6064V0H5943L5777 420V0ZM6299 0V331L6145 810H6314L6391 554L6460 810H6622L6471 331V0ZM6934 -12Q6842 -12 6788.5 21.5Q6735 55 6713.0 115.5Q6691 176 6691 258V550Q6691 634 6713.0 694.5Q6735 755 6788.5 788.0Q6842 821 6934 821Q7024 821 7074.5 791.5Q7125 762 7146.0 709.0Q7167 656 7167 587V517H6992V598Q6992 622 6989.5 644.0Q6987 666 6975.0 680.5Q6963 695 6934 695Q6906 695 6892.5 680.0Q6879 665 6875.5 642.5Q6872 620 6872 595V214Q6872 187 6876.5 164.5Q6881 142 6894.5 128.5Q6908 115 6934 115Q6962 115 6974.0 129.5Q6986 144 6989.0 167.0Q6992 190 6992 214V299H7167V229Q7167 160 7146.5 105.5Q7126 51 7075.5 19.5Q7025 -12 6934 -12Z"/>
  </g>
</svg>
