<svg xmlns="http://www.w3.org/2000/svg" viewBox="0 0 512 512"><svg x="86" y="150" width="340" height="230" viewBox="0 0 209.401270 140.875626" preserveAspectRatio="xMidYMid meet"><g transform="translate(-73.563140,166.894318) scale(0.100000,-0.100000)"
fill="#ffffff" stroke="none">
<path d="M1455 1661 c-45 -11 -93 -39 -105 -60 -11 -21 -13 -93 -4 -127 l6
-22 56 21 c45 17 80 22 164 22 l106 0 -5 50 c-3 28 -12 61 -20 73 -28 45 -114
63 -198 43z"/>
<path d="M2048 1465 c-136 -13 -174 -27 -212 -78 -18 -24 -22 -47 -26 -142 -5
-120 -11 -136 -57 -149 -27 -9 -29 -1 -43 139 -14 152 -18 165 -47 176 -64 24
-233 1 -282 -39 l-22 -17 16 -138 c9 -77 14 -145 11 -153 -4 -10 -22 -14 -58
-14 -153 0 -233 -82 -226 -230 l3 -65 240 1 c235 1 413 17 504 46 19 6 63 37
98 70 35 32 74 63 87 68 13 5 77 18 142 30 184 33 268 51 276 59 13 12 -18
314 -35 346 -35 68 -105 106 -189 104 -29 -1 -110 -7 -180 -14z m277 -147 c23
-20 26 -33 32 -109 l6 -86 -54 -6 c-176 -21 -175 -21 -198 2 -17 17 -21 33
-21 91 0 80 16 105 72 114 120 20 133 19 163 -6z"/>
<path d="M2635 980 c-49 -10 -175 -35 -280 -55 -285 -54 -286 -54 -319 -75
-17 -10 -43 -34 -58 -53 -40 -51 -104 -76 -252 -97 -199 -29 -442 -39 -671
-29 -291 14 -284 14 -303 -5 -24 -24 -21 -134 6 -210 42 -115 105 -169 217
-185 41 -6 330 -11 702 -11 700 0 733 2 844 62 159 84 257 232 294 445 21 121
20 174 -6 207 -24 31 -45 32 -174 6z m-28 -172 c28 -26 31 -82 6 -110 -23 -25
-84 -24 -108 2 -26 28 -23 75 5 105 29 31 66 32 97 3z"/>
</g></svg></svg>
