<svg width="1600" height="900" viewBox="0 0 1600 900" fill="none" xmlns="http://www.w3.org/2000/svg" role="img" aria-labelledby="title desc">
  <title id="title">Old internet links versus new internet answers</title>
  <desc id="desc">A split-screen comparison showing link-based search on the left and AI answer cards on the right.</desc>
  <defs>
    <linearGradient id="splitBg" x1="0" y1="0" x2="1600" y2="900" gradientUnits="userSpaceOnUse">
      <stop stop-color="#EEF4F8"/>
      <stop offset="1" stop-color="#E8F4F7"/>
    </linearGradient>
    <linearGradient id="leftPanel" x1="120" y1="180" x2="760" y2="760" gradientUnits="userSpaceOnUse">
      <stop stop-color="#FFFFFF"/>
      <stop offset="1" stop-color="#F4F7FA"/>
    </linearGradient>
    <linearGradient id="rightPanel" x1="840" y1="180" x2="1480" y2="760" gradientUnits="userSpaceOnUse">
      <stop stop-color="#0D1C28"/>
      <stop offset="1" stop-color="#153B4E"/>
    </linearGradient>
  </defs>

  <rect width="1600" height="900" fill="url(#splitBg)"/>

  <rect x="102" y="120" width="640" height="660" rx="20" fill="url(#leftPanel)" stroke="#D3DEE7" stroke-width="2"/>
  <rect x="858" y="120" width="640" height="660" rx="20" fill="url(#rightPanel)"/>

  <text x="132" y="188" fill="#202B36" font-family="Arial, sans-serif" font-size="42" font-weight="700">Old Internet: Links</text>
  <text x="888" y="188" fill="#F4FAFF" font-family="Arial, sans-serif" font-size="42" font-weight="700">New Internet: Answers</text>

  <g>
    <rect x="132" y="230" width="574" height="120" rx="12" fill="#FFFFFF" stroke="#D8E1E9"/>
    <rect x="158" y="256" width="198" height="14" rx="7" fill="#0C6A84"/>
    <rect x="368" y="256" width="164" height="14" rx="7" fill="#93A7B6"/>
    <rect x="158" y="284" width="508" height="12" rx="6" fill="#7B90A1"/>
    <rect x="158" y="308" width="478" height="12" rx="6" fill="#849AAC"/>

    <rect x="132" y="372" width="574" height="120" rx="12" fill="#FFFFFF" stroke="#D8E1E9"/>
    <rect x="158" y="398" width="214" height="14" rx="7" fill="#0C6A84"/>
    <rect x="384" y="398" width="188" height="14" rx="7" fill="#97AABB"/>
    <rect x="158" y="426" width="492" height="12" rx="6" fill="#7A8FA0"/>
    <rect x="158" y="450" width="460" height="12" rx="6" fill="#8499AB"/>

    <rect x="132" y="514" width="574" height="120" rx="12" fill="#FFFFFF" stroke="#D8E1E9"/>
    <rect x="158" y="540" width="226" height="14" rx="7" fill="#0C6A84"/>
    <rect x="396" y="540" width="146" height="14" rx="7" fill="#96ABBB"/>
    <rect x="158" y="568" width="506" height="12" rx="6" fill="#7B8F9F"/>
    <rect x="158" y="592" width="442" height="12" rx="6" fill="#8498A9"/>
  </g>

  <g>
    <rect x="888" y="230" width="578" height="190" rx="14" fill="#1B2C3A" stroke="#2D465A"/>
    <rect x="920" y="266" width="202" height="18" rx="9" fill="#FE5800"/>
    <rect x="1138" y="266" width="152" height="18" rx="9" fill="#86A2B6"/>
    <rect x="920" y="302" width="498" height="13" rx="6.5" fill="#A6C5D8"/>
    <rect x="920" y="328" width="472" height="13" rx="6.5" fill="#8EB1C7"/>
    <rect x="920" y="354" width="388" height="13" rx="6.5" fill="#7D9FB6"/>

    <rect x="888" y="448" width="578" height="186" rx="14" fill="#1B2C3A" stroke="#2D465A"/>
    <rect x="920" y="486" width="226" height="18" rx="9" fill="#0C6A84"/>
    <rect x="1162" y="486" width="134" height="18" rx="9" fill="#88A5B8"/>
    <rect x="920" y="522" width="500" height="13" rx="6.5" fill="#A6C6D8"/>
    <rect x="920" y="548" width="462" height="13" rx="6.5" fill="#90B2C7"/>
    <rect x="920" y="574" width="360" height="13" rx="6.5" fill="#7EA0B6"/>
  </g>

  <path d="M780 450H826" stroke="#FE5800" stroke-width="8" stroke-linecap="round"/>
  <path d="M812 430L838 450L812 470" stroke="#FE5800" stroke-width="8" stroke-linecap="round" stroke-linejoin="round"/>
</svg>
