<svg width="1600" height="900" viewBox="0 0 1600 900" fill="none" xmlns="http://www.w3.org/2000/svg" role="img" aria-labelledby="title desc">
  <title id="title">Stylized cluttered search results page</title>
  <desc id="desc">A noisy search interface with ads, summaries, and crowded result cards to represent modern search clutter.</desc>
  <defs>
    <linearGradient id="bg" x1="0" y1="0" x2="1600" y2="900" gradientUnits="userSpaceOnUse">
      <stop stop-color="#141B23"/>
      <stop offset="0.55" stop-color="#1E2E3E"/>
      <stop offset="1" stop-color="#0A6782"/>
    </linearGradient>
    <filter id="softBlur" x="0" y="0" width="1600" height="900" filterUnits="userSpaceOnUse" color-interpolation-filters="sRGB">
      <feGaussianBlur stdDeviation="1.4"/>
    </filter>
  </defs>

  <rect width="1600" height="900" fill="url(#bg)"/>

  <rect x="92" y="82" width="1416" height="736" rx="24" fill="#10161D" stroke="#324558" stroke-width="2"/>
  <rect x="136" y="122" width="780" height="44" rx="22" fill="#E9F2F8"/>
  <rect x="938" y="122" width="170" height="44" rx="22" fill="#FE5800"/>
  <rect x="1124" y="122" width="170" height="44" rx="22" fill="#0C6A84"/>
  <rect x="1310" y="122" width="156" height="44" rx="22" fill="#2C3F4F"/>

  <g filter="url(#softBlur)">
    <rect x="136" y="196" width="924" height="120" rx="12" fill="#1E2A35"/>
    <rect x="156" y="220" width="160" height="16" rx="8" fill="#FE5800"/>
    <rect x="330" y="220" width="238" height="16" rx="8" fill="#94A8B8"/>
    <rect x="156" y="248" width="736" height="14" rx="7" fill="#7F95A7"/>
    <rect x="156" y="274" width="684" height="14" rx="7" fill="#6D8496"/>

    <rect x="136" y="334" width="924" height="120" rx="12" fill="#1E2A35"/>
    <rect x="156" y="358" width="96" height="16" rx="8" fill="#0C6A84"/>
    <rect x="266" y="358" width="320" height="16" rx="8" fill="#9DB0C0"/>
    <rect x="156" y="386" width="754" height="14" rx="7" fill="#8095A7"/>
    <rect x="156" y="412" width="620" height="14" rx="7" fill="#6B8293"/>

    <rect x="136" y="472" width="924" height="120" rx="12" fill="#1E2A35"/>
    <rect x="156" y="496" width="134" height="16" rx="8" fill="#FE5800"/>
    <rect x="304" y="496" width="298" height="16" rx="8" fill="#97ABBB"/>
    <rect x="156" y="524" width="786" height="14" rx="7" fill="#8398AA"/>
    <rect x="156" y="550" width="654" height="14" rx="7" fill="#708799"/>

    <rect x="136" y="610" width="924" height="120" rx="12" fill="#1E2A35"/>
    <rect x="156" y="634" width="176" height="16" rx="8" fill="#0C6A84"/>
    <rect x="346" y="634" width="288" height="16" rx="8" fill="#93A9BA"/>
    <rect x="156" y="662" width="744" height="14" rx="7" fill="#7E94A6"/>
    <rect x="156" y="688" width="680" height="14" rx="7" fill="#6F8596"/>
  </g>

  <rect x="1092" y="196" width="374" height="534" rx="14" fill="#16202A" stroke="#2B3E4E"/>
  <rect x="1120" y="230" width="312" height="22" rx="11" fill="#FE5800"/>
  <rect x="1120" y="268" width="334" height="14" rx="7" fill="#9CB0BF"/>
  <rect x="1120" y="294" width="296" height="14" rx="7" fill="#8298A9"/>
  <rect x="1120" y="330" width="286" height="180" rx="12" fill="#0F6A85"/>
  <rect x="1120" y="532" width="334" height="14" rx="7" fill="#93A8B9"/>
  <rect x="1120" y="558" width="270" height="14" rx="7" fill="#7B91A3"/>
  <rect x="1120" y="584" width="312" height="14" rx="7" fill="#697F91"/>

  <text x="1138" y="430" fill="white" font-family="Arial, sans-serif" font-size="56" font-weight="700">AI</text>
  <text x="1138" y="484" fill="#D9F0F8" font-family="Arial, sans-serif" font-size="32" font-weight="600">Summary</text>
</svg>
